<svg width="770" height="770" viewBox="0 0 770 770" fill="none" xmlns="http://www.w3.org/2000/svg">
<rect width="770" height="770" rx="385" fill="white"/>
<path d="M129.73 444.1C127.577 444.1 125.367 443.533 123.1 442.4C120.947 441.38 119.133 439.737 117.66 437.47C116.073 435.203 115.28 432.313 115.28 428.8C115.28 425.06 116.187 420.867 118 416.22C119.813 411.573 122.25 406.927 125.31 402.28C128.483 397.633 132.11 393.383 136.19 389.53C140.383 385.677 144.803 382.56 149.45 380.18C154.097 377.8 158.8 376.61 163.56 376.61C166.167 376.61 168.207 377.063 169.68 377.97C171.153 378.763 171.89 380.123 171.89 382.05C171.89 382.617 171.777 383.297 171.55 384.09C171.323 384.77 170.757 385.393 169.85 385.96C169.397 385.28 168.603 384.827 167.47 384.6C166.337 384.26 165.147 384.09 163.9 384.09C160.16 384.09 156.59 385.167 153.19 387.32C149.79 389.36 146.673 392.023 143.84 395.31C141.007 398.597 138.513 402.167 136.36 406.02C134.32 409.873 132.733 413.613 131.6 417.24C130.467 420.753 129.9 423.813 129.9 426.42C129.9 428.573 130.353 430.33 131.26 431.69C132.167 432.937 133.527 433.56 135.34 433.56C138.4 433.56 142.027 431.803 146.22 428.29C150.527 424.663 154.89 419.507 159.31 412.82C163.843 406.02 167.923 397.917 171.55 388.51C174.043 382.05 176.65 375.477 179.37 368.79C182.09 361.99 184.81 355.473 187.53 349.24C190.25 343.007 192.913 337.453 195.52 332.58C198.24 327.707 200.79 323.853 203.17 321.02C205.663 318.073 207.93 316.6 209.97 316.6C211.217 316.6 212.293 317.11 213.2 318.13C214.22 319.037 214.73 320.227 214.73 321.7C214.73 323.627 213.767 326.743 211.84 331.05C210.027 335.243 207.647 340.287 204.7 346.18C201.867 352.073 198.75 358.477 195.35 365.39C192.063 372.19 188.947 379.217 186 386.47C183.167 393.61 180.787 400.693 178.86 407.72C177.047 414.633 176.14 421.15 176.14 427.27C176.14 429.99 176.367 431.86 176.82 432.88C177.387 433.787 178.293 434.24 179.54 434.24C182.033 434.24 184.81 433.277 187.87 431.35C190.93 429.423 194.047 426.59 197.22 422.85C200.393 418.997 203.283 414.407 205.89 409.08L209.12 411.8C206.627 418.033 203.453 423.53 199.6 428.29C195.747 433.05 191.61 436.733 187.19 439.34C182.77 442.06 178.407 443.42 174.1 443.42C169.453 443.42 166.223 441.947 164.41 439C162.597 436.053 161.69 432.597 161.69 428.63C161.69 426.817 161.803 425.003 162.03 423.19C162.37 421.263 162.71 419.393 163.05 417.58C159.537 422.68 155.797 427.27 151.83 431.35C147.977 435.317 144.18 438.433 140.44 440.7C136.7 442.967 133.13 444.1 129.73 444.1ZM221.226 446.48C213.973 446.48 208.363 444.497 204.396 440.53C200.543 436.677 198.616 431.803 198.616 425.91C198.616 420.923 199.863 415.653 202.356 410.1C204.963 404.433 208.419 399.163 212.726 394.29C217.033 389.303 221.793 385.28 227.006 382.22C232.219 379.16 237.433 377.63 242.646 377.63C245.593 377.63 248.369 378.423 250.976 380.01C253.696 381.483 255.056 384.487 255.056 389.02C255.056 393.327 253.809 397.35 251.316 401.09C248.823 404.83 245.479 408.173 241.286 411.12C237.093 414.067 232.446 416.503 227.346 418.43C222.359 420.243 217.316 421.433 212.216 422C212.103 422.453 211.989 422.963 211.876 423.53C211.876 423.983 211.876 424.777 211.876 425.91C211.876 426.477 211.933 427.497 212.046 428.97C212.273 430.33 212.783 431.803 213.576 433.39C214.369 434.977 215.673 436.337 217.486 437.47C219.299 438.603 221.793 439.17 224.966 439.17C229.726 439.17 234.486 437.867 239.246 435.26C244.119 432.54 248.653 428.97 252.846 424.55C257.153 420.13 260.723 415.2 263.556 409.76L266.956 412.48C263.896 419.28 259.929 425.23 255.056 430.33C250.296 435.43 244.969 439.397 239.076 442.23C233.296 445.063 227.346 446.48 221.226 446.48ZM214.086 415.71C217.033 415.37 220.319 414.35 223.946 412.65C227.573 410.95 231.029 408.797 234.316 406.19C237.716 403.583 240.493 400.75 242.646 397.69C244.799 394.517 245.876 391.343 245.876 388.17C245.876 386.923 245.649 386.073 245.196 385.62C244.743 385.167 244.006 384.94 242.986 384.94C240.379 384.94 237.659 385.903 234.826 387.83C231.993 389.643 229.216 392.08 226.496 395.14C223.776 398.087 221.339 401.373 219.186 405C217.033 408.627 215.333 412.197 214.086 415.71ZM268.965 446.99C265.225 446.99 261.995 445.743 259.275 443.25C256.442 440.757 255.025 437.017 255.025 432.03C255.025 428.063 255.932 423.757 257.745 419.11C259.559 414.463 262.052 409.873 265.225 405.34C268.399 400.807 272.025 396.727 276.105 393.1C280.185 389.36 284.549 386.357 289.195 384.09C293.842 381.823 298.489 380.69 303.135 380.69C308.009 380.69 312.145 381.937 315.545 384.43C318.945 386.923 320.645 390.21 320.645 394.29C320.645 397.35 319.569 399.56 317.415 400.92C315.262 402.28 312.712 402.677 309.765 402.11C309.992 401.09 310.162 400.07 310.275 399.05C310.502 398.03 310.615 396.953 310.615 395.82C310.615 393.553 310.162 391.513 309.255 389.7C308.349 387.887 306.422 386.98 303.475 386.98C300.302 386.98 297.072 388.057 293.785 390.21C290.499 392.363 287.325 395.197 284.265 398.71C281.319 402.11 278.655 405.907 276.275 410.1C273.895 414.18 272.025 418.203 270.665 422.17C269.305 426.137 268.625 429.707 268.625 432.88C268.625 436.507 269.929 438.32 272.535 438.32C275.142 438.32 278.032 437.073 281.205 434.58C284.379 431.973 287.552 428.743 290.725 424.89C294.012 421.037 297.129 417.127 300.075 413.16C303.022 409.08 305.572 405.623 307.725 402.79C308.065 402.223 308.519 401.94 309.085 401.94C309.539 402.053 310.389 402.337 311.635 402.79C312.995 403.13 314.242 403.697 315.375 404.49C316.509 405.283 317.075 406.303 317.075 407.55C317.075 408.683 316.565 410.157 315.545 411.97C314.639 413.67 313.505 415.597 312.145 417.75C310.899 419.79 309.765 421.887 308.745 424.04C307.839 426.08 307.385 428.063 307.385 429.99C307.385 431.463 307.782 432.88 308.575 434.24C309.369 435.487 310.672 436.11 312.485 436.11C315.205 436.11 319.002 434.127 323.875 430.16C328.862 426.08 333.905 419.223 339.005 409.59L342.235 412.82C339.515 418.94 336.229 424.38 332.375 429.14C328.635 433.787 324.669 437.413 320.475 440.02C316.282 442.74 312.032 444.1 307.725 444.1C303.079 444.1 299.622 442.627 297.355 439.68C295.089 436.733 293.842 433.56 293.615 430.16C293.615 429.933 293.615 429.763 293.615 429.65C293.615 429.537 293.615 429.423 293.615 429.31C289.082 434.75 284.889 439.057 281.035 442.23C277.295 445.403 273.272 446.99 268.965 446.99ZM366.432 443.42C362.239 443.42 358.839 442.287 356.232 440.02C353.626 437.867 352.322 434.92 352.322 431.18C352.322 428.007 353.116 424.607 354.702 420.98C356.289 417.353 357.876 413.783 359.462 410.27C361.162 406.757 362.012 403.64 362.012 400.92C362.012 398.313 361.162 396.16 359.462 394.46C357.762 392.647 355.779 391.173 353.512 390.04C351.019 396.273 348.186 402.337 345.012 408.23C341.952 414.01 339.459 418.543 337.532 421.83L334.982 416.9C336.569 413.953 338.666 409.76 341.272 404.32C343.879 398.88 346.372 392.817 348.752 386.13C347.619 384.997 347.052 383.467 347.052 381.54C347.052 378.593 347.959 375.817 349.772 373.21C351.586 370.603 353.342 369.3 355.042 369.3C356.402 369.3 357.366 370.093 357.932 371.68C358.612 373.153 358.952 374.173 358.952 374.74C358.952 375.307 358.669 376.327 358.102 377.8C357.649 379.273 357.309 380.35 357.082 381.03C357.196 382.277 358.159 383.523 359.972 384.77C361.899 385.903 364.052 387.263 366.432 388.85C368.812 390.437 370.909 392.42 372.722 394.8C374.536 397.18 375.442 400.183 375.442 403.81C375.442 407.097 374.706 410.44 373.232 413.84C371.759 417.24 370.286 420.413 368.812 423.36C367.339 426.307 366.602 428.857 366.602 431.01C366.602 432.597 366.999 433.673 367.792 434.24C368.699 434.693 369.719 434.92 370.852 434.92C373.572 434.92 376.406 434.127 379.352 432.54C382.299 430.84 385.189 428.687 388.022 426.08C390.856 423.473 393.349 420.753 395.502 417.92C397.656 414.973 399.299 412.31 400.432 409.93L404.512 412.99C402.359 417.863 399.242 422.68 395.162 427.44C391.082 432.087 386.549 435.94 381.562 439C376.576 441.947 371.532 443.42 366.432 443.42ZM449.06 486.6C446.227 486.6 443.564 485.693 441.07 483.88C438.69 482.18 437.5 479.403 437.5 475.55C437.5 471.923 438.577 468.637 440.73 465.69C442.884 462.857 445.66 460.193 449.06 457.7C452.46 455.32 456.087 453.11 459.94 451.07C463.907 449.143 467.704 447.33 471.33 445.63C472.577 442.343 473.937 438.207 475.41 433.22C476.997 428.12 478.357 423.417 479.49 419.11C475.977 423.983 472.237 428.29 468.27 432.03C464.304 435.77 459.884 437.64 455.01 437.64C452.97 437.64 450.817 437.243 448.55 436.45C446.284 435.543 444.357 434.07 442.77 432.03C441.297 429.877 440.56 427.043 440.56 423.53C440.56 420.583 441.07 417.013 442.09 412.82C443.224 408.627 444.584 404.547 446.17 400.58C447.87 396.5 449.627 393.157 451.44 390.55C453.254 387.83 454.84 386.47 456.2 386.47C456.88 386.47 457.844 386.753 459.09 387.32C460.45 387.773 461.754 388.453 463 389.36C464.247 390.153 465.04 391.06 465.38 392.08C464.36 393.44 463.227 395.423 461.98 398.03C460.734 400.523 459.544 403.357 458.41 406.53C457.277 409.59 456.314 412.593 455.52 415.54C454.84 418.487 454.5 421.037 454.5 423.19C454.5 424.89 454.84 426.363 455.52 427.61C456.2 428.857 457.504 429.48 459.43 429.48C461.924 429.48 464.474 428.46 467.08 426.42C469.8 424.38 472.407 421.773 474.9 418.6C477.507 415.427 479.83 412.197 481.87 408.91C482.097 408.117 482.324 406.87 482.55 405.17C482.777 403.47 483.174 401.713 483.74 399.9C484.307 397.973 485.27 396.217 486.63 394.63C488.104 393.043 490.144 392.25 492.75 392.25C493.657 392.25 494.507 392.307 495.3 392.42C496.094 392.533 497.057 392.703 498.19 392.93C498.19 394.63 497.567 397.973 496.32 402.96C495.187 407.833 493.657 413.5 491.73 419.96C489.804 426.42 487.65 432.88 485.27 439.34C490.03 437.413 494.96 434.24 500.06 429.82C505.274 425.287 509.467 418.883 512.64 410.61L515.53 412.99C513.83 418.657 511.224 423.587 507.71 427.78C504.31 431.973 500.457 435.543 496.15 438.49C491.844 441.437 487.48 443.873 483.06 445.8C480 453.167 476.657 459.967 473.03 466.2C469.517 472.433 465.777 477.363 461.81 480.99C457.844 484.73 453.594 486.6 449.06 486.6ZM447.36 480.31C449.514 480.31 452.517 478.043 456.37 473.51C460.224 468.977 464.134 462.177 468.1 453.11C464.474 454.923 460.79 457.02 457.05 459.4C453.424 461.893 450.364 464.5 447.87 467.22C445.377 469.94 444.13 472.717 444.13 475.55C444.13 476.683 444.357 477.76 444.81 478.78C445.377 479.8 446.227 480.31 447.36 480.31ZM520.187 444.44C515.087 444.44 511.573 442.74 509.647 439.34C507.833 436.053 506.927 432.427 506.927 428.46C506.927 424.833 507.493 421.15 508.627 417.41C509.76 413.557 511.29 409.987 513.217 406.7C515.257 403.413 517.467 400.807 519.847 398.88C522.34 396.84 524.833 395.82 527.327 395.82C528.12 395.82 529.027 395.99 530.047 396.33C531.18 396.557 531.973 396.953 532.427 397.52C531.067 399.22 529.65 401.317 528.177 403.81C526.817 406.303 525.513 408.967 524.267 411.8C523.133 414.52 522.227 417.297 521.547 420.13C520.867 422.963 520.527 425.57 520.527 427.95C520.527 430.217 520.923 432.087 521.717 433.56C522.623 435.033 524.153 435.77 526.307 435.77C528.46 435.77 531.01 434.58 533.957 432.2C537.017 429.707 539.907 426.873 542.627 423.7C539 420.413 536.393 416.843 534.807 412.99C533.22 409.023 532.427 404.263 532.427 398.71C532.427 396.33 532.993 393.61 534.127 390.55C535.373 387.49 537.3 384.827 539.907 382.56C542.627 380.293 546.253 379.16 550.787 379.16C555.66 379.16 559.06 380.52 560.987 383.24C563.027 385.96 564.047 389.19 564.047 392.93C564.047 397.123 562.913 401.827 560.647 407.04C558.493 412.253 555.887 417.183 552.827 421.83C554.187 422.51 555.773 422.85 557.587 422.85C559.287 422.85 561.327 422.453 563.707 421.66C566.087 420.867 568.41 419.563 570.677 417.75C572.943 415.823 574.757 413.273 576.117 410.1L579.177 412.31C576.683 418.09 573.34 422.34 569.147 425.06C565.067 427.667 561.043 428.97 557.077 428.97C555.603 428.97 554.13 428.857 552.657 428.63C551.183 428.29 549.823 427.893 548.577 427.44C544.723 431.973 540.303 435.94 535.317 439.34C530.33 442.74 525.287 444.44 520.187 444.44ZM547.047 418.26C549.767 414.293 552.09 410.043 554.017 405.51C555.943 400.977 556.907 396.783 556.907 392.93C556.907 390.323 556.51 388.453 555.717 387.32C554.923 386.073 553.733 385.45 552.147 385.45C549.993 385.45 547.783 386.98 545.517 390.04C543.25 393.1 542.117 396.953 542.117 401.6C542.117 403.98 542.513 406.87 543.307 410.27C544.213 413.67 545.46 416.333 547.047 418.26ZM585.139 444.1C581.285 444.1 578.112 442.343 575.619 438.83C573.239 435.203 572.049 431.067 572.049 426.42C572.049 423.247 572.559 419.507 573.579 415.2C574.599 410.893 575.902 406.7 577.489 402.62C579.189 398.54 580.889 395.14 582.589 392.42C584.402 389.7 586.045 388.34 587.519 388.34C588.312 388.34 589.502 388.793 591.089 389.7C592.789 390.493 594.262 391.513 595.509 392.76C594.262 394.573 592.732 397.35 590.919 401.09C589.219 404.83 587.689 408.853 586.329 413.16C584.969 417.467 584.289 421.377 584.289 424.89C584.289 425.343 584.345 426.42 584.459 428.12C584.685 429.82 585.139 431.407 585.819 432.88C586.499 434.353 587.689 435.09 589.389 435.09C591.315 435.09 593.355 434.07 595.509 432.03C597.775 429.877 600.042 427.157 602.309 423.87C604.689 420.47 606.955 416.843 609.109 412.99C611.375 409.137 613.359 405.397 615.059 401.77C616.872 398.143 618.345 395.083 619.479 392.59C620.499 392.703 621.802 392.987 623.389 393.44C625.089 393.893 626.562 394.517 627.809 395.31C629.055 395.99 629.679 397.01 629.679 398.37C629.679 398.71 629.112 400.127 627.979 402.62C626.959 405 625.712 407.89 624.239 411.29C622.879 414.69 621.632 418.203 620.499 421.83C619.479 425.343 618.969 428.46 618.969 431.18C618.969 432.767 619.252 434.183 619.819 435.43C620.499 436.563 621.745 437.13 623.559 437.13C625.939 437.13 628.772 436.053 632.059 433.9C635.345 431.747 638.745 428.63 642.259 424.55C645.772 420.47 648.889 415.597 651.609 409.93L654.159 411.97C651.665 418.09 648.435 423.587 644.469 428.46C640.502 433.333 636.252 437.13 631.719 439.85C627.185 442.683 622.765 444.1 618.459 444.1C615.172 444.1 612.679 443.307 610.979 441.72C609.392 440.247 608.315 438.32 607.749 435.94C607.182 433.447 606.842 430.953 606.729 428.46C606.729 427.893 606.729 427.327 606.729 426.76C606.729 426.08 606.729 425.513 606.729 425.06C604.802 428.12 602.705 431.123 600.439 434.07C598.172 436.903 595.735 439.283 593.129 441.21C590.635 443.137 587.972 444.1 585.139 444.1Z" fill="black"/>
</svg>
